# xmcd CD database file
#
# Track frame offsets:
#	150
#	27423
#	47302
#	66744
#	89599
#	109464
#	130639
#	159827
#	181700
#	195536
#	212426
#	233982
#	256660
#	274605
#	296140
#
# Disc length: 4202 seconds
#
# Revision: 0
# Processed by: cddbd v1.5.1PL2 Copyright (c) Steve Scherf et al.
# Submitted via: CDex 1.51
#
DISCID=d110680f
DTITLE=山口百恵 - コンプリート百恵回帰 Disc 1
DYEAR=2005
DGENRE=JPop
TTITLE0=さよならの向う側
TTITLE1=ロックンロール・ウィドウ
TTITLE2=謝肉祭
TTITLE3=しなやかに歌って
TTITLE4=愛の嵐
TTITLE5=美・サイレント
TTITLE6=曼珠沙華
TTITLE7=いい日 旅立ち
TTITLE8=絶体絶命
TTITLE9=プレイバック Part2
TTITLE10=乙女座 宮
TTITLE11=秋桜
TTITLE12=イミテイション・ゴールド
TTITLE13=夢先案内人
TTITLE14=横須賀ストーリー
EXTD=YEAR: 2005
EXTT0=
EXTT1=
EXTT2=
EXTT3=
EXTT4=
EXTT5=
EXTT6=
EXTT7=
EXTT8=
EXTT9=
EXTT10=
EXTT11=
EXTT12=
EXTT13=
EXTT14=
PLAYORDER=
